<?xml version="1.0" encoding="UTF-8" standalone="no"?>
<svg
   xmlns:dc="http://purl.org/dc/elements/1.1/"
   xmlns:cc="http://creativecommons.org/ns#"
   xmlns:rdf="http://www.w3.org/1999/02/22-rdf-syntax-ns#"
   xmlns:svg="http://www.w3.org/2000/svg"
   xmlns="http://www.w3.org/2000/svg"
   xmlns:sodipodi="http://sodipodi.sourceforge.net/DTD/sodipodi-0.dtd"
   xmlns:inkscape="http://www.inkscape.org/namespaces/inkscape"
   version="1.1"
   x="0px"
   y="0px"
   viewBox="0 0 25 25"
   enable-background="new 0 0 40 40"
   xml:space="preserve"
   id="svg2"
   inkscape:version="0.91 r13725"
   sodipodi:docname="box.svg"
   width="25"
   height="25"><metadata
     id="metadata14"><rdf:RDF><cc:Work
         rdf:about=""><dc:format>image/svg+xml</dc:format><dc:type
           rdf:resource="http://purl.org/dc/dcmitype/StillImage" /><dc:title></dc:title></cc:Work></rdf:RDF></metadata><defs
     id="defs12" /><sodipodi:namedview
     pagecolor="#ffffff"
     bordercolor="#666666"
     borderopacity="1"
     objecttolerance="10"
     gridtolerance="10"
     guidetolerance="10"
     inkscape:pageopacity="0"
     inkscape:pageshadow="2"
     inkscape:window-width="1600"
     inkscape:window-height="837"
     id="namedview10"
     showgrid="false"
     inkscape:zoom="4.72"
     inkscape:cx="-61.652542"
     inkscape:cy="7.5"
     inkscape:window-x="0"
     inkscape:window-y="27"
     inkscape:window-maximized="1"
     inkscape:current-layer="svg2"
     fit-margin-top="0"
     fit-margin-left="0"
     fit-margin-right="0"
     fit-margin-bottom="0" /><path
     d="M 25,7 20,0 13,0 15,7 25,7 Z M 12,0 5,0 0,7 10,7 12,0 Z m 3,11 -1,0 0,-1 -1,0 0,1 -1,0 0,-1 -1,0 0,1 -1,0 0,-3 -10,0 0,17 25,0 0,-17 -10,0 0,3 z m -3,11 -9,0 0,-5 9,0 0,5 z m 7,-6 3,4 -2,0 0,2 -2,0 0,-2 -2,0 3,-4 z m -9,4 -6,0 0,1 6,0 0,-1 z m -3,-2 -3,0 0,1 3,0 0,-1 z"
     id="path4"
     style="clip-rule:evenodd;fill:#00573f;fill-opacity:0.94117647;fill-rule:evenodd"
     inkscape:export-filename="/home/nicky/Code/client_code/kw/img/icons/box.png"
     inkscape:export-xdpi="180"
     inkscape:export-ydpi="180"
     inkscape:connector-curvature="0" /></svg>