<?xml version="1.0" encoding="UTF-8" standalone="no"?>
<svg
   xmlns:dc="http://purl.org/dc/elements/1.1/"
   xmlns:cc="http://creativecommons.org/ns#"
   xmlns:rdf="http://www.w3.org/1999/02/22-rdf-syntax-ns#"
   xmlns:svg="http://www.w3.org/2000/svg"
   xmlns="http://www.w3.org/2000/svg"
   xmlns:sodipodi="http://sodipodi.sourceforge.net/DTD/sodipodi-0.dtd"
   xmlns:inkscape="http://www.inkscape.org/namespaces/inkscape"
   version="1.1"
   x="0px"
   y="0px"
   viewBox="0 0 73.125 90"
   enable-background="new 0 0 100 100"
   xml:space="preserve"
   id="svg2"
   inkscape:version="0.91 r13725"
   sodipodi:docname="clean.svg"
   width="73.125"
   height="90"><metadata
     id="metadata16"><rdf:RDF><cc:Work
         rdf:about=""><dc:format>image/svg+xml</dc:format><dc:type
           rdf:resource="http://purl.org/dc/dcmitype/StillImage" /><dc:title /></cc:Work></rdf:RDF></metadata><defs
     id="defs14" /><sodipodi:namedview
     pagecolor="#ffffff"
     bordercolor="#666666"
     borderopacity="1"
     objecttolerance="10"
     gridtolerance="10"
     guidetolerance="10"
     inkscape:pageopacity="0"
     inkscape:pageshadow="2"
     inkscape:window-width="1600"
     inkscape:window-height="837"
     id="namedview12"
     showgrid="false"
     fit-margin-top="0"
     fit-margin-left="0"
     fit-margin-right="0"
     fit-margin-bottom="0"
     inkscape:zoom="1.888"
     inkscape:cx="-105.91681"
     inkscape:cy="32.5"
     inkscape:window-x="0"
     inkscape:window-y="27"
     inkscape:window-maximized="1"
     inkscape:current-layer="svg2" /><path
     d="m 0,90 73.125,0 -3.75,-27.422 C 47.452,48.164 24.131,47.93 3.75,62.813 L 0,90 Z"
     id="path4"
     inkscape:connector-curvature="0"
     style="fill:#b3b3b3" /><path
     d="M 56.25,35.625 C 52.594,34.35 48.75,33.019 45,31.875 42.187,31.013 41.25,27.769 41.25,26.25 l 0,-8.756 c 2.813,-1.632 4.688,-4.65 4.688,-8.119 C 45.937,4.2 41.737,0 36.562,0 c -5.175,0 -9.375,4.2 -9.375,9.375 0,3.469 1.875,6.487 4.688,8.119 l 0,8.756 c 0,1.557 -0.469,4.612 -3.75,5.625 -2.307,0.712 -8.362,2.85 -11.25,3.75 -7.031,2.193 -11.719,9.15 -13.125,22.5 21.899,-13.35 43.236,-13.482 65.625,0 C 68.08,48.75 66.093,39.057 56.25,35.625 Z M 36.562,4.688 c 2.587,0 4.688,2.1 4.688,4.688 0,2.588 -2.101,4.687 -4.688,4.687 -2.587,0 -4.688,-2.1 -4.688,-4.688 0,-2.588 2.101,-4.687 4.688,-4.687 z"
     id="path6"
     inkscape:connector-curvature="0"
     style="fill:#b3b3b3" /></svg>