<?xml version="1.0" encoding="UTF-8" standalone="no"?>
<svg
   xmlns:dc="http://purl.org/dc/elements/1.1/"
   xmlns:cc="http://creativecommons.org/ns#"
   xmlns:rdf="http://www.w3.org/1999/02/22-rdf-syntax-ns#"
   xmlns:svg="http://www.w3.org/2000/svg"
   xmlns="http://www.w3.org/2000/svg"
   xmlns:sodipodi="http://sodipodi.sourceforge.net/DTD/sodipodi-0.dtd"
   xmlns:inkscape="http://www.inkscape.org/namespaces/inkscape"
   version="1.1"
   x="0px"
   y="0px"
   viewBox="0 0 384 512"
   enable-background="new 0 0 512 512"
   xml:space="preserve"
   id="svg2"
   inkscape:version="0.91 r13725"
   sodipodi:docname="coins.svg"
   width="384"
   height="512"><metadata
     id="metadata14"><rdf:RDF><cc:Work
         rdf:about=""><dc:format>image/svg+xml</dc:format><dc:type
           rdf:resource="http://purl.org/dc/dcmitype/StillImage" /><dc:title /></cc:Work></rdf:RDF></metadata><defs
     id="defs12" /><sodipodi:namedview
     pagecolor="#ffffff"
     bordercolor="#666666"
     borderopacity="1"
     objecttolerance="10"
     gridtolerance="10"
     guidetolerance="10"
     inkscape:pageopacity="0"
     inkscape:pageshadow="2"
     inkscape:window-width="1600"
     inkscape:window-height="837"
     id="namedview10"
     showgrid="false"
     fit-margin-top="0"
     fit-margin-left="0"
     fit-margin-right="0"
     fit-margin-bottom="0"
     inkscape:zoom="0.36875"
     inkscape:cx="-308.60794"
     inkscape:cy="249.69461"
     inkscape:window-x="0"
     inkscape:window-y="27"
     inkscape:window-maximized="1"
     inkscape:current-layer="svg2" /><path
     d="M 380.938,143.375 C 382.813,148.781 384,154.313 384,160 384,213 298.031,256 192,256 85.969,256 0,213 0,160 0,154.312 1.156,148.781 3.063,143.375 35.656,181.813 107.031,208 192,208 c 84.969,0 156.344,-26.187 188.938,-64.625 z M 192,272 C 107.031,272 35.656,245.812 3.062,207.375 1.156,212.781 0,218.313 0,224 c 0,53 85.969,96 192,96 106.031,0 192,-43 192,-96 0,-5.688 -1.188,-11.219 -3.063,-16.625 C 348.344,245.813 276.969,272 192,272 Z m 0,64 C 107.031,336 35.656,309.812 3.062,271.375 1.156,276.781 0,282.313 0,288 c 0,53 85.969,96 192,96 106.031,0 192,-43 192,-96 0,-5.688 -1.188,-11.219 -3.063,-16.625 C 348.344,309.813 276.969,336 192,336 Z m 0,64 C 107.031,400 35.656,373.812 3.062,335.375 1.156,340.781 0,346.313 0,352 c 0,53 85.969,96 192,96 106.031,0 192,-43 192,-96 0,-5.688 -1.188,-11.219 -3.063,-16.625 C 348.344,373.813 276.969,400 192,400 Z m 0,64 C 107.031,464 35.656,437.812 3.062,399.375 1.156,404.781 0,410.313 0,416 c 0,53 85.969,96 192,96 106.031,0 192,-43 192,-96 0,-5.688 -1.188,-11.219 -3.063,-16.625 C 348.344,437.813 276.969,464 192,464 Z M 0,96 C 0,43 85.969,0 192,0 298.031,0 384,43 384,96 384,149 298.031,192 192,192 85.969,192 0,149 0,96 Z m 226.563,21.313 c 0,3.188 -2.688,5.938 -8.063,8.188 -5.375,2.281 -13.813,3.406 -25.219,3.406 -24.406,0 -38.781,-5.281 -43.125,-15.844 l -46.875,4.875 c 9.469,16.813 34,26.031 73.656,27.656 l 0,14.406 30.313,0 0,-14.469 c 23.781,-1 41.969,-4.344 54.563,-9.969 12.594,-5.656 18.906,-12.688 18.906,-21.188 0,-5.5 -3.063,-10.313 -9.156,-14.438 -6.125,-4.094 -14.281,-7.344 -24.531,-9.688 -10.219,-2.313 -24.344,-4.813 -42.344,-7.438 -16.375,-2.406 -27.094,-4.438 -32.063,-6.063 -5,-1.625 -7.5,-3.969 -7.5,-7 0,-3 2.594,-5.563 7.781,-7.656 5.156,-2.094 12.031,-3.156 20.594,-3.156 17.063,0 29.625,4.719 37.781,14.125 l 41.75,-6.875 c -9.969,-13.688 -31.906,-21.375 -65.781,-23 l 0,-11.185 -30.313,0 0,11.188 c -22.438,1.281 -38.875,4.75 -49.313,10.406 -10.438,5.656 -15.688,12.063 -15.688,19.156 0,5.375 2.938,10.125 8.781,14.219 5.844,4.063 13.469,7.219 22.844,9.469 9.375,2.25 22.406,4.563 39.063,6.875 18.531,2.625 30.5,4.75 35.875,6.5 5.376,1.687 8.064,4.187 8.064,7.5 z"
     id="path4"
     inkscape:connector-curvature="0"
     style="fill:#b3b3b3" /></svg>