<?xml version="1.0" encoding="UTF-8" standalone="no"?>
<svg
   xmlns:dc="http://purl.org/dc/elements/1.1/"
   xmlns:cc="http://creativecommons.org/ns#"
   xmlns:rdf="http://www.w3.org/1999/02/22-rdf-syntax-ns#"
   xmlns:svg="http://www.w3.org/2000/svg"
   xmlns="http://www.w3.org/2000/svg"
   xmlns:sodipodi="http://sodipodi.sourceforge.net/DTD/sodipodi-0.dtd"
   xmlns:inkscape="http://www.inkscape.org/namespaces/inkscape"
   version="1.1"
   x="0px"
   y="0px"
   viewBox="0 0 51.200001 70.900002"
   enable-background="new 0 0 72 72"
   xml:space="preserve"
   id="svg2"
   inkscape:version="0.91 r13725"
   sodipodi:docname="document.svg"
   width="51.200001"
   height="70.900002"><metadata
     id="metadata26"><rdf:RDF><cc:Work
         rdf:about=""><dc:format>image/svg+xml</dc:format><dc:type
           rdf:resource="http://purl.org/dc/dcmitype/StillImage" /><dc:title></dc:title></cc:Work></rdf:RDF></metadata><defs
     id="defs24" /><sodipodi:namedview
     pagecolor="#ffffff"
     bordercolor="#666666"
     borderopacity="1"
     objecttolerance="10"
     gridtolerance="10"
     guidetolerance="10"
     inkscape:pageopacity="0"
     inkscape:pageshadow="2"
     inkscape:window-width="1600"
     inkscape:window-height="837"
     id="namedview22"
     showgrid="false"
     inkscape:zoom="2.6222222"
     inkscape:cx="-41.327966"
     inkscape:cy="26.5"
     inkscape:window-x="0"
     inkscape:window-y="27"
     inkscape:window-maximized="1"
     inkscape:current-layer="svg2"
     fit-margin-top="0"
     fit-margin-left="0"
     fit-margin-right="0"
     fit-margin-bottom="0" /><g
     id="g4"
     style="fill:#00573f;fill-opacity:0.94117647"
     inkscape:export-filename="/home/nicky/Code/client_code/kw/img/icons/documents.png"
     inkscape:export-xdpi="96.473907"
     inkscape:export-ydpi="96.473907"
     transform="translate(-10.4,-0.6)"><path
       d="m 47.2,4.2 -4.7,0 C 42,4.2 41.5,3.9 41.2,3.5 40.1,1.7 38.2,0.6 36,0.6 33.8,0.6 31.8,1.8 30.8,3.5 30.5,4 30,4.2 29.5,4.2 l -4.7,0 c -2.6,0 -4.9,2 -5.1,4.6 -0.2,2.9 2.1,5.2 4.9,5.2 l 22.8,0 c 2.8,0 5.1,-2.4 4.9,-5.2 C 52.1,6.2 49.9,4.2 47.2,4.2 Z"
       id="path6"
       style="fill:#00573f;fill-opacity:0.94117647"
       inkscape:connector-curvature="0" /><g
       id="g8"
       style="fill:#00573f;fill-opacity:0.94117647"><path
         d="m 21.4,36.5 c -0.1,0 -0.2,0 -0.3,0 -0.5,-0.1 -0.8,-0.4 -1,-0.8 l -1.4,-3.1 c -0.4,-0.8 0.1,-1.8 1,-2.1 0.7,-0.2 1.5,0.2 1.8,0.9 l 0.2,0.4 c 0.2,0.4 0.7,0.5 1,0.2 l 4.1,-3.4 c 0.6,-0.5 1.6,-0.4 2.1,0.2 0.5,0.6 0.4,1.6 -0.2,2.1 l -6.2,5.2 c -0.4,0.3 -0.8,0.4 -1.1,0.4 z"
         id="path10"
         style="fill:#00573f;fill-opacity:0.94117647"
         inkscape:connector-curvature="0" /></g><g
       id="g12"
       style="fill:#00573f;fill-opacity:0.94117647"><path
         d="m 21.4,61.4 c -0.1,0 -0.2,0 -0.3,0 -0.5,-0.1 -0.8,-0.4 -1,-0.8 l -1.4,-3.1 c -0.4,-0.8 0.1,-1.8 1,-2.1 0.7,-0.2 1.5,0.2 1.8,0.9 l 0.3,0.7 c 0.1,0.3 0.5,0.3 0.7,0.2 l 4.3,-3.6 c 0.6,-0.5 1.6,-0.4 2.1,0.2 0.5,0.6 0.4,1.6 -0.2,2.1 L 22.4,61 c -0.3,0.3 -0.7,0.4 -1,0.4 z"
         id="path14"
         style="fill:#00573f;fill-opacity:0.94117647"
         inkscape:connector-curvature="0" /></g><path
       d="m 60.8,9.7 -4.8,0 c -0.4,0 -0.7,0.3 -0.8,0.7 -0.3,1.5 -0.9,3 -2,4.1 -1.5,1.6 -3.6,2.5 -5.8,2.5 L 24.6,17 C 22.4,17 20.3,16.1 18.8,14.5 17.7,13.4 17,11.9 16.8,10.4 16.7,10 16.4,9.7 16,9.7 l -4.8,0 c -0.4,0 -0.8,0.4 -0.8,0.8 l 0,60.2 c 0,0.4 0.4,0.8 0.8,0.8 l 49.6,0 c 0.4,0 0.8,-0.4 0.8,-0.8 l 0,-60.2 c 0,-0.4 -0.4,-0.8 -0.8,-0.8 z M 30.4,63 c 0,0.5 -0.4,0.8 -0.8,0.8 l -11.5,0 c -0.5,0 -0.8,-0.4 -0.8,-0.8 l 0,-11.5 c 0,-0.5 0.4,-0.8 0.8,-0.8 l 11.5,0 c 0.5,0 0.8,0.4 0.8,0.8 l 0,11.5 z m 0,-24.8 c 0,0.5 -0.4,0.8 -0.8,0.8 l -11.5,0 c -0.5,0 -0.8,-0.4 -0.8,-0.8 l 0,-11.6 c 0,-0.5 0.4,-0.8 0.8,-0.8 l 11.5,0 c 0.5,0 0.8,0.4 0.8,0.8 l 0,11.6 z m 22.5,25.2 -15.5,0 c -1.1,0 -2,-0.9 -2,-2 0,-1.1 0.9,-2 2,-2 l 15.5,0 c 1.1,0 2,0.9 2,2 0,1.1 -0.9,2 -2,2 z m 0,-8.2 -15.5,0 c -1.1,0 -2,-0.9 -2,-2 0,-1.1 0.9,-2 2,-2 l 15.5,0 c 1.1,0 2,0.9 2,2 0,1.1 -0.9,2 -2,2 z m 0,-16.7 -15.5,0 c -1.1,0 -2,-0.9 -2,-2 0,-1.1 0.9,-2 2,-2 l 15.5,0 c 1.1,0 2,0.9 2,2 0,1.1 -0.9,2 -2,2 z m 0,-8.2 -15.5,0 c -1.1,0 -2,-0.9 -2,-2 0,-1.1 0.9,-2 2,-2 l 15.5,0 c 1.1,0 2,0.9 2,2 0,1.1 -0.9,2 -2,2 z"
       id="path16"
       style="fill:#00573f;fill-opacity:0.94117647"
       inkscape:connector-curvature="0" /></g></svg>