<?xml version="1.0" encoding="UTF-8" standalone="no"?>
<svg
   xmlns:dc="http://purl.org/dc/elements/1.1/"
   xmlns:cc="http://creativecommons.org/ns#"
   xmlns:rdf="http://www.w3.org/1999/02/22-rdf-syntax-ns#"
   xmlns:svg="http://www.w3.org/2000/svg"
   xmlns="http://www.w3.org/2000/svg"
   xmlns:sodipodi="http://sodipodi.sourceforge.net/DTD/sodipodi-0.dtd"
   xmlns:inkscape="http://www.inkscape.org/namespaces/inkscape"
   version="1.1"
   x="0px"
   y="0px"
   viewBox="0 0 56.551674 55.93"
   enable-background="new 0 0 75 75"
   xml:space="preserve"
   id="svg2"
   inkscape:version="0.91 r13725"
   sodipodi:docname="flexible.svg"
   width="56.551674"
   height="55.93"><metadata
     id="metadata20"><rdf:RDF><cc:Work
         rdf:about=""><dc:format>image/svg+xml</dc:format><dc:type
           rdf:resource="http://purl.org/dc/dcmitype/StillImage" /><dc:title /></cc:Work></rdf:RDF></metadata><defs
     id="defs18" /><sodipodi:namedview
     pagecolor="#ffffff"
     bordercolor="#666666"
     borderopacity="1"
     objecttolerance="10"
     gridtolerance="10"
     guidetolerance="10"
     inkscape:pageopacity="0"
     inkscape:pageshadow="2"
     inkscape:window-width="1600"
     inkscape:window-height="837"
     id="namedview16"
     showgrid="false"
     fit-margin-top="0"
     fit-margin-left="0"
     fit-margin-right="0"
     fit-margin-bottom="0"
     inkscape:zoom="2.5173333"
     inkscape:cx="-137.57434"
     inkscape:cy="18.589"
     inkscape:window-x="0"
     inkscape:window-y="27"
     inkscape:window-maximized="1"
     inkscape:current-layer="svg2" /><path
     d="m 56.091768,22.875 c -1.01,-6.146 -4.104,-9.139 -6.397,-10.547 l -0.344,-0.053 c 0,0 -4.75,-1.731 -8.698,7.13 3.146,2.645 3.688,8.481 2.465,13.302 -1.598,6.287 -8.783,9.903 -8.783,9.903 l -2.093,-2.162 -6.277,15.482 17.575,0 -2.093,-2.929 c 0,0 6.974,-4.741 10.043,-8.647 3.068,-3.906 6.276,-11.297 4.602,-21.479 z"
     id="path4"
     inkscape:connector-curvature="0"
     style="fill:#b3b3b3" /><g
     id="g6"
     transform="translate(-9.2242321,-9.534)"
     style="fill:#b3b3b3"><path
       d="M 25.705,47.82 C 12.733,31.362 32.121,22.645 32.121,22.645 l 1.673,2.511 6.138,-15.622 -17.576,0 2.371,2.929 c -3.208,1.325 -7.74,5.788 -7.74,5.788 0,0 -9.066,9.206 -7.603,22.387 1.465,13.181 9.485,14.087 9.485,14.087 L 34.63,54.307 C 30.655,54.028 25.705,47.82 25.705,47.82 Z"
       id="path8"
       inkscape:connector-curvature="0"
       style="fill:#b3b3b3" /><path
       d="m 40.628,20.693 c -4.462,0.418 -6.555,6.974 -6.555,6.974 -3.216,10.4 -5.699,15.921 -6.938,18.36 l -0.209,0.435 c 2.817,3.979 5.87,5.934 9.177,7.027 2.25,0.167 5.572,-8.527 5.572,-8.527 2.813,-7.346 4.209,-10.6 6.696,-16.946 0.403,-1.016 2.365,-6.969 6.763,-7.36 -2.935,-0.094 -10.901,-0.301 -14.506,0.037 z"
       id="path10"
       inkscape:connector-curvature="0"
       style="fill:#b3b3b3" /></g></svg>