<?xml version="1.0" encoding="UTF-8" standalone="no"?>
<svg
   xmlns:dc="http://purl.org/dc/elements/1.1/"
   xmlns:cc="http://creativecommons.org/ns#"
   xmlns:rdf="http://www.w3.org/1999/02/22-rdf-syntax-ns#"
   xmlns:svg="http://www.w3.org/2000/svg"
   xmlns="http://www.w3.org/2000/svg"
   xmlns:sodipodi="http://sodipodi.sourceforge.net/DTD/sodipodi-0.dtd"
   xmlns:inkscape="http://www.inkscape.org/namespaces/inkscape"
   version="1.1"
   x="0px"
   y="0px"
   viewBox="0 0 38 31"
   enable-background="new 0 0 38 31"
   xml:space="preserve"
   id="svg2"
   inkscape:version="0.91 r13725"
   sodipodi:docname="meeting.svg"><metadata
     id="metadata10"><rdf:RDF><cc:Work
         rdf:about=""><dc:format>image/svg+xml</dc:format><dc:type
           rdf:resource="http://purl.org/dc/dcmitype/StillImage" /><dc:title></dc:title></cc:Work></rdf:RDF></metadata><defs
     id="defs8" /><sodipodi:namedview
     pagecolor="#ffffff"
     bordercolor="#666666"
     borderopacity="1"
     objecttolerance="10"
     gridtolerance="10"
     guidetolerance="10"
     inkscape:pageopacity="0"
     inkscape:pageshadow="2"
     inkscape:window-width="1600"
     inkscape:window-height="837"
     id="namedview6"
     showgrid="false"
     inkscape:snap-text-baseline="true"
     inkscape:zoom="7.6129032"
     inkscape:cx="-4.1843221"
     inkscape:cy="15.5"
     inkscape:window-x="0"
     inkscape:window-y="27"
     inkscape:window-maximized="1"
     inkscape:current-layer="svg2" /><path
     fill-rule="evenodd"
     clip-rule="evenodd"
     d="M34.098,24.095L34.082,31l-5.635-6.376H16.519c-3.548,0-6.425-2.877-6.425-6.426  v-7.476c0-3.548,2.876-6.425,6.425-6.425h15.035c3.548,0,6.425,2.877,6.425,6.425v7.476C37.979,20.843,36.379,23.109,34.098,24.095z   M8.023,10.703v5.354l-4.794,5.357l-0.009-5.805C1.327,14.784,0,12.9,0,10.703V5.354C0,2.396,2.396,0,5.355,0h12.719  c1.743,0,3.277,0.846,4.254,2.135H16.59C11.858,2.135,8.023,5.97,8.023,10.703z"
     id="path4"
     style="fill:#00573f;fill-opacity:0.94117647"
     inkscape:export-filename="/home/nicky/Code/client_code/kw/img/icons/meeting.png"
     inkscape:export-xdpi="124.83871"
     inkscape:export-ydpi="124.83871" /></svg>