<?xml version="1.0" encoding="UTF-8" standalone="no"?>
<svg
   xmlns:dc="http://purl.org/dc/elements/1.1/"
   xmlns:cc="http://creativecommons.org/ns#"
   xmlns:rdf="http://www.w3.org/1999/02/22-rdf-syntax-ns#"
   xmlns:svg="http://www.w3.org/2000/svg"
   xmlns="http://www.w3.org/2000/svg"
   xmlns:sodipodi="http://sodipodi.sourceforge.net/DTD/sodipodi-0.dtd"
   xmlns:inkscape="http://www.inkscape.org/namespaces/inkscape"
   version="1.1"
   x="0px"
   y="0px"
   viewBox="0 0 82.200058 99.999878"
   enable-background="new 0 0 100 100"
   xml:space="preserve"
   id="svg2"
   inkscape:version="0.91 r13725"
   sodipodi:docname="secure.svg"
   width="82.200058"
   height="99.999878"><metadata
     id="metadata132"><rdf:RDF><cc:Work
         rdf:about=""><dc:format>image/svg+xml</dc:format><dc:type
           rdf:resource="http://purl.org/dc/dcmitype/StillImage" /><dc:title /></cc:Work></rdf:RDF></metadata><defs
     id="defs130" /><sodipodi:namedview
     pagecolor="#ffffff"
     bordercolor="#666666"
     borderopacity="1"
     objecttolerance="10"
     gridtolerance="10"
     guidetolerance="10"
     inkscape:pageopacity="0"
     inkscape:pageshadow="2"
     inkscape:window-width="1600"
     inkscape:window-height="837"
     id="namedview128"
     showgrid="false"
     fit-margin-top="0"
     fit-margin-left="0"
     fit-margin-right="0"
     fit-margin-bottom="0"
     inkscape:zoom="1.888"
     inkscape:cx="-180.03296"
     inkscape:cy="37.5"
     inkscape:window-x="0"
     inkscape:window-y="27"
     inkscape:window-maximized="1"
     inkscape:current-layer="svg2" /><g
     id="g114"
     transform="translate(-8.8994811,-1.2122011e-4)"
     style="fill:#b3b3b3"><g
       id="g116"
       style="fill:#b3b3b3"><path
         d="m 91.07,13.334 c -0.055,-1.733 -1.475,-3.11 -3.208,-3.11 -24.136,0 -35.683,-9.381 -35.785,-9.465 -1.189,-1.011 -2.944,-1.009 -4.143,-0.011 -0.114,0.095 -11.661,9.476 -35.797,9.476 -1.733,0 -3.153,1.377 -3.208,3.11 C 8.839,16.257 7.186,85.08 48.932,99.816 49.277,99.938 49.639,100 50,100 c 0.361,0 0.723,-0.062 1.068,-0.184 C 92.814,85.08 91.16,16.257 91.07,13.334 Z M 68.648,65.827 c 0,2.712 -2.198,4.911 -4.911,4.911 l -27.474,0 c -2.712,0 -4.912,-2.199 -4.912,-4.911 l 0,-19.289 c 0,-2.616 2.046,-4.747 4.624,-4.897 l 0,-7.743 c 0,-7.733 6.292,-14.024 14.025,-14.024 7.733,0 14.025,6.291 14.025,14.024 l 0,7.743 c 2.578,0.15 4.623,2.281 4.623,4.897 l 0,19.289 z"
         id="path118"
         inkscape:connector-curvature="0"
         style="fill:#b3b3b3" /><path
         d="m 52.701,56.408 c 0.977,-0.804 1.562,-2.013 1.562,-3.294 0,-2.352 -1.913,-4.265 -4.264,-4.265 -2.351,0 -4.263,1.913 -4.263,4.265 0,1.281 0.585,2.49 1.562,3.294 l -1.856,4.402 c -0.101,0.239 -0.075,0.514 0.068,0.73 0.145,0.217 0.387,0.348 0.647,0.348 l 7.683,0 c 0.26,0 0.502,-0.131 0.646,-0.348 0.144,-0.217 0.17,-0.491 0.068,-0.73 l -1.853,-4.402 z"
         id="path120"
         inkscape:connector-curvature="0"
         style="fill:#b3b3b3" /><path
         d="m 50,26.831 c -3.896,0 -7.066,3.17 -7.066,7.066 l 0,7.729 14.134,0 0,-7.729 C 57.067,30.001 53.896,26.831 50,26.831 Z"
         id="path122"
         inkscape:connector-curvature="0"
         style="fill:#b3b3b3" /></g></g></svg>