<?xml version="1.0" encoding="UTF-8" standalone="no"?>
<svg
   xmlns:dc="http://purl.org/dc/elements/1.1/"
   xmlns:cc="http://creativecommons.org/ns#"
   xmlns:rdf="http://www.w3.org/1999/02/22-rdf-syntax-ns#"
   xmlns:svg="http://www.w3.org/2000/svg"
   xmlns="http://www.w3.org/2000/svg"
   xmlns:sodipodi="http://sodipodi.sourceforge.net/DTD/sodipodi-0.dtd"
   xmlns:inkscape="http://www.inkscape.org/namespaces/inkscape"
   version="1.1"
   x="0px"
   y="0px"
   viewBox="0 0 98.201863 100"
   enable-background="new 0 0 98.202 100"
   xml:space="preserve"
   id="svg2"
   inkscape:version="0.91 r13725"
   sodipodi:docname="trolley.svg"
   width="98.201866"
   height="100"><metadata
     id="metadata26"><rdf:RDF><cc:Work
         rdf:about=""><dc:format>image/svg+xml</dc:format><dc:type
           rdf:resource="http://purl.org/dc/dcmitype/StillImage" /><dc:title></dc:title></cc:Work></rdf:RDF></metadata><defs
     id="defs24" /><sodipodi:namedview
     pagecolor="#ffffff"
     bordercolor="#666666"
     borderopacity="1"
     objecttolerance="10"
     gridtolerance="10"
     guidetolerance="10"
     inkscape:pageopacity="0"
     inkscape:pageshadow="2"
     inkscape:window-width="1600"
     inkscape:window-height="837"
     id="namedview22"
     showgrid="false"
     inkscape:zoom="1.888"
     inkscape:cx="-43.854637"
     inkscape:cy="37.499998"
     inkscape:window-x="0"
     inkscape:window-y="27"
     inkscape:window-maximized="1"
     inkscape:current-layer="svg2"
     fit-margin-top="0"
     fit-margin-left="0"
     fit-margin-right="0"
     fit-margin-bottom="0" /><g
     id="g4"
     style="fill:#00573f;fill-opacity:0.94117647"
     inkscape:export-filename="/home/nicky/Code/client_code/kw/img/icons/trolley.png"
     inkscape:export-xdpi="50.400002"
     inkscape:export-ydpi="50.400002"
     transform="translate(-1.3021953e-4,0)"><path
       d="M 16.374,74.926 4.256,86.292 c -3.824,3.588 -5.354,8.171 -3.416,10.237 1.936,2.065 6.607,0.832 10.432,-2.757 l 8.112,-7.609 -3.01,-11.237 z"
       id="path6"
       style="fill:#00573f;fill-opacity:0.94117647"
       inkscape:connector-curvature="0" /></g><circle
     cx="53.348869"
     cy="91.322998"
     r="8.677"
     id="circle8"
     style="fill:#00573f;fill-opacity:0.94117647"
     inkscape:export-filename="/home/nicky/Code/client_code/kw/img/icons/trolley.png"
     inkscape:export-xdpi="50.400002"
     inkscape:export-ydpi="50.400002" /><path
     d="m 68.87187,90.472 -23.185,-47.791 c 1.017,-0.936 1.658,-2.275 1.658,-3.766 0,-2.833 -2.296,-5.128 -5.128,-5.128 l -5.915,0 -12.723,-12.723 c -1.304,-2.309 -4.215,-3.919 -7.604,-3.919 -4.605,0 -8.3380002,2.969 -8.3380002,6.63 l 0,33.771 5.9240002,0 7.488,27.942 0.042,-0.012 2.654,9.904 c 0.733,2.736 3.549,4.358 6.292,3.623 2.741,-0.734 4.369,-3.546 3.636,-6.283 l -2.654,-9.904 -6.771,-25.271 0.066,0 0,-21.151 7.648,7.648 10.255,0 c 0.054,0 0.106,-0.006 0.16,-0.008 l 23.285,47.997 0,0 1.558,3.211 27.409,-13.299 -1.558,-3.21 -24.199,11.739 z"
     id="path10"
     style="fill:#00573f;fill-opacity:0.94117647"
     inkscape:export-filename="/home/nicky/Code/client_code/kw/img/icons/trolley.png"
     inkscape:export-xdpi="50.400002"
     inkscape:export-ydpi="50.400002"
     inkscape:connector-curvature="0" /><polygon
     points="67.723,53.849 56.286,59.397 69.752,87.154 83.018,80.718 72.919,59.901 71.09,60.789 "
     id="polygon12"
     style="fill:#00573f;fill-opacity:0.94117647"
     inkscape:export-filename="/home/nicky/Code/client_code/kw/img/icons/trolley.png"
     inkscape:export-xdpi="50.400002"
     inkscape:export-ydpi="50.400002"
     transform="translate(-1.3021953e-4,0)" /><polygon
     points="84.736,45.595 73.3,51.144 76.665,58.083 74.23,59.264 84.33,80.081 98.202,73.352 "
     id="polygon14"
     style="fill:#00573f;fill-opacity:0.94117647"
     inkscape:export-filename="/home/nicky/Code/client_code/kw/img/icons/trolley.png"
     inkscape:export-xdpi="50.400002"
     inkscape:export-ydpi="50.400002"
     transform="translate(-1.3021953e-4,0)" /><path
     d="m 37.21587,5.521 -7.553,0 C 28.50587,2.304 25.43787,0 21.82287,0 c -4.605,0 -8.338,3.732 -8.338,8.337 0,4.605 3.733,8.338 8.338,8.338 3.622,0 6.696,-2.313 7.846,-5.541 4.383,-0.776 7.547,-2.996 7.547,-5.613 z"
     id="path16"
     style="fill:#00573f;fill-opacity:0.94117647"
     inkscape:export-filename="/home/nicky/Code/client_code/kw/img/icons/trolley.png"
     inkscape:export-xdpi="50.400002"
     inkscape:export-ydpi="50.400002"
     inkscape:connector-curvature="0" /></svg>