<?xml version="1.0" encoding="UTF-8" standalone="no"?>
<svg
   xmlns:dc="http://purl.org/dc/elements/1.1/"
   xmlns:cc="http://creativecommons.org/ns#"
   xmlns:rdf="http://www.w3.org/1999/02/22-rdf-syntax-ns#"
   xmlns:svg="http://www.w3.org/2000/svg"
   xmlns="http://www.w3.org/2000/svg"
   xmlns:sodipodi="http://sodipodi.sourceforge.net/DTD/sodipodi-0.dtd"
   xmlns:inkscape="http://www.inkscape.org/namespaces/inkscape"
   version="1.1"
   x="0px"
   y="0px"
   viewBox="0 0 93.5 68.938004"
   enable-background="new 0 0 100 100"
   xml:space="preserve"
   id="svg2"
   inkscape:version="0.91 r13725"
   sodipodi:docname="truck.svg"
   width="93.5"
   height="68.938004"><metadata
     id="metadata146"><rdf:RDF><cc:Work
         rdf:about=""><dc:format>image/svg+xml</dc:format><dc:type
           rdf:resource="http://purl.org/dc/dcmitype/StillImage" /><dc:title></dc:title></cc:Work></rdf:RDF></metadata><defs
     id="defs144" /><sodipodi:namedview
     pagecolor="#ffffff"
     bordercolor="#666666"
     borderopacity="1"
     objecttolerance="10"
     gridtolerance="10"
     guidetolerance="10"
     inkscape:pageopacity="0"
     inkscape:pageshadow="2"
     inkscape:window-width="1600"
     inkscape:window-height="837"
     id="namedview142"
     showgrid="false"
     inkscape:zoom="1.888"
     inkscape:cx="-124.90466"
     inkscape:cy="23.438"
     inkscape:window-x="0"
     inkscape:window-y="27"
     inkscape:window-maximized="1"
     inkscape:current-layer="svg2"
     fit-margin-top="0"
     fit-margin-left="0"
     fit-margin-right="0"
     fit-margin-bottom="0" /><g
     id="g4"
     transform="translate(-2.5,-17)" /><g
     id="g114"
     style="fill:#005737;fill-opacity:1"
     transform="matrix(-1,0,0,1,96,-17)"
     inkscape:export-filename="/home/nicky/Code/client_code/kw/img/icons/truck.png"
     inkscape:export-xdpi="53.526356"
     inkscape:export-ydpi="53.526356"><path
       d="M 96,61.447 C 96,62.631 95.614,64 94.531,64 l -55.01,0 C 38.438,64 37,62.631 37,61.447 L 37,18.64 C 37,17.458 38.438,17 39.521,17 l 55.01,0 C 95.614,17 96,17.458 96,18.64 l 0,42.807 z"
       id="path116"
       style="fill:#005737;fill-opacity:1"
       inkscape:connector-curvature="0" /><g
       id="g118"
       style="fill:#005737;fill-opacity:1"><g
         id="g120"
         style="fill:#005737;fill-opacity:1"><polygon
           points="34,68 3,68 3.57,47 34,47 "
           id="polygon122"
           style="fill:#005737;fill-opacity:1" /></g><path
         d="M 93,72 5,72 C 3.619,72 2.5,70.881 2.5,69.5 2.5,68.119 3.619,67 5,67 l 88,0 c 1.381,0 2.5,1.119 2.5,2.5 0,1.381 -1.119,2.5 -2.5,2.5 z"
         id="path124"
         style="fill:#005737;fill-opacity:1"
         inkscape:connector-curvature="0" /><g
         id="g126"
         style="fill:#005737;fill-opacity:1"><path
           d="m 25.853,85.938 c -4.933,0 -8.946,-4.014 -8.946,-8.946 0,-4.934 4.013,-8.947 8.946,-8.947 4.934,0 8.948,4.014 8.948,8.947 0,4.932 -4.014,8.946 -8.948,8.946 z m 0,-12.894 c -2.176,0 -3.946,1.771 -3.946,3.947 0,2.176 1.771,3.946 3.946,3.946 2.177,0 3.948,-1.771 3.948,-3.946 0,-2.177 -1.771,-3.947 -3.948,-3.947 z"
           id="path128"
           style="fill:#005737;fill-opacity:1"
           inkscape:connector-curvature="0" /></g><g
         id="g130"
         style="fill:#005737;fill-opacity:1"><path
           d="m 77.745,85.938 c -4.933,0 -8.946,-4.014 -8.946,-8.946 0,-4.934 4.014,-8.947 8.946,-8.947 4.934,0 8.948,4.014 8.948,8.947 0,4.932 -4.014,8.946 -8.948,8.946 z m 0,-12.894 c -2.176,0 -3.946,1.771 -3.946,3.947 0,2.176 1.771,3.946 3.946,3.946 2.177,0 3.948,-1.771 3.948,-3.946 0,-2.177 -1.771,-3.947 -3.948,-3.947 z"
           id="path132"
           style="fill:#005737;fill-opacity:1"
           inkscape:connector-curvature="0" /></g><g
         id="g134"
         style="fill:#005737;fill-opacity:1"><path
           d="M 31.5,50 6.07,50 C 5.257,50 4.495,49.605 4.027,48.94 3.559,48.276 3.443,47.425 3.716,46.66 l 7.491,-21 C 11.562,24.664 12.505,24 13.561,24 L 31.5,24 c 1.381,0 2.5,1.119 2.5,2.5 l 0,21 C 34,48.881 32.881,50 31.5,50 Z M 9.616,45 29,45 29,29 15.324,29 9.616,45 Z"
           id="path136"
           style="fill:#005737;fill-opacity:1"
           inkscape:connector-curvature="0" /></g></g></g></svg>