<?xml version="1.0" encoding="UTF-8" standalone="no"?>
<svg
   xmlns:dc="http://purl.org/dc/elements/1.1/"
   xmlns:cc="http://creativecommons.org/ns#"
   xmlns:rdf="http://www.w3.org/1999/02/22-rdf-syntax-ns#"
   xmlns:svg="http://www.w3.org/2000/svg"
   xmlns="http://www.w3.org/2000/svg"
   xmlns:sodipodi="http://sodipodi.sourceforge.net/DTD/sodipodi-0.dtd"
   xmlns:inkscape="http://www.inkscape.org/namespaces/inkscape"
   version="1.1"
   x="0px"
   y="0px"
   viewBox="0 0 255.118 233.589"
   enable-background="new 0 0 283.46 283.46"
   xml:space="preserve"
   id="svg2"
   inkscape:version="0.91 r13725"
   sodipodi:docname="unpack.svg"
   width="255.118"
   height="233.589"><metadata
     id="metadata22"><rdf:RDF><cc:Work
         rdf:about=""><dc:format>image/svg+xml</dc:format><dc:type
           rdf:resource="http://purl.org/dc/dcmitype/StillImage" /><dc:title></dc:title></cc:Work></rdf:RDF></metadata><defs
     id="defs20" /><sodipodi:namedview
     pagecolor="#ffffff"
     bordercolor="#666666"
     borderopacity="1"
     objecttolerance="10"
     gridtolerance="10"
     guidetolerance="10"
     inkscape:pageopacity="0"
     inkscape:pageshadow="2"
     inkscape:window-width="1600"
     inkscape:window-height="837"
     id="namedview18"
     showgrid="false"
     inkscape:zoom="0.66605515"
     inkscape:cx="-349.87894"
     inkscape:cy="81.361497"
     inkscape:window-x="0"
     inkscape:window-y="27"
     inkscape:window-maximized="1"
     inkscape:current-layer="svg2"
     fit-margin-top="0"
     fit-margin-left="0"
     fit-margin-right="0"
     fit-margin-bottom="0" /><polygon
     points="227.833,131.738 221.929,217.398 141.733,258.524 141.733,167.539 "
     id="polygon4"
     style="fill:#005737;fill-opacity:1"
     inkscape:export-filename="/home/nicky/Code/client_code/kw/img/icons/unpack.png"
     inkscape:export-xdpi="19.402786"
     inkscape:export-ydpi="19.402786"
     transform="translate(-14.171,-24.935)" /><polygon
     points="55.646,131.738 141.733,167.539 141.733,258.524 61.539,217.398 "
     id="polygon6"
     style="fill:#005737;fill-opacity:1"
     inkscape:export-filename="/home/nicky/Code/client_code/kw/img/icons/unpack.png"
     inkscape:export-xdpi="19.402786"
     inkscape:export-ydpi="19.402786"
     transform="translate(-14.171,-24.935)" /><path
     d="m 196.668,42.351 c -47.811,12.235 -78.23,51.721 -72.052,93.532 -28.569,-47.968 1,-106.07 61.914,-121.679 -1.7,-4.722 -3.413,-9.471 -5.106,-14.204 20.248,5.107 40.491,10.233 60.739,15.341 -13.453,13.736 -26.926,27.486 -40.385,41.232 -1.704,-4.748 -3.407,-9.483 -5.11,-14.222 z"
     id="path8"
     style="fill:#005737;fill-opacity:1"
     inkscape:export-filename="/home/nicky/Code/client_code/kw/img/icons/unpack.png"
     inkscape:export-xdpi="19.402786"
     inkscape:export-ydpi="19.402786"
     inkscape:connector-curvature="0" /><path
     d="m 213.662,106.803 c 13.82,-14.45 27.636,-28.903 41.456,-43.354 -13.061,-3.83 -26.115,-7.627 -39.186,-11.433 -5.756,5.858 -11.508,11.738 -17.263,17.611 -2.298,-6.381 -4.605,-12.78 -6.904,-19.178 -20.675,6.827 -34.776,16.786 -46.396,32.74 22.757,7.872 45.522,15.744 68.293,23.614 z"
     id="path10"
     style="fill:#005737;fill-opacity:1"
     inkscape:export-filename="/home/nicky/Code/client_code/kw/img/icons/unpack.png"
     inkscape:export-xdpi="19.402786"
     inkscape:export-ydpi="19.402786"
     inkscape:connector-curvature="0" /><path
     d="M 107.323,84.032 C 108.5,76.931 110.595,70.158 113.679,63.471 104.962,54.954 96.241,46.434 87.529,37.909 58.351,46.414 29.177,54.929 0,63.449 13.821,77.899 27.639,92.352 41.476,106.803 63.412,99.211 85.361,91.628 107.323,84.032 Z"
     id="path12"
     style="fill:#005737;fill-opacity:1"
     inkscape:export-filename="/home/nicky/Code/client_code/kw/img/icons/unpack.png"
     inkscape:export-xdpi="19.402786"
     inkscape:export-ydpi="19.402786"
     inkscape:connector-curvature="0" /></svg>