<?xml version="1.0" encoding="UTF-8" standalone="no"?>
<svg
   xmlns:dc="http://purl.org/dc/elements/1.1/"
   xmlns:cc="http://creativecommons.org/ns#"
   xmlns:rdf="http://www.w3.org/1999/02/22-rdf-syntax-ns#"
   xmlns:svg="http://www.w3.org/2000/svg"
   xmlns="http://www.w3.org/2000/svg"
   xmlns:sodipodi="http://sodipodi.sourceforge.net/DTD/sodipodi-0.dtd"
   xmlns:inkscape="http://www.inkscape.org/namespaces/inkscape"
   version="1.1"
   x="0px"
   y="0px"
   viewBox="0 0 75.862999 100.00013"
   enable-background="new 0 0 100 100"
   xml:space="preserve"
   id="svg2"
   inkscape:version="0.91 r13725"
   sodipodi:docname="value.svg"
   width="75.862999"
   height="100.00013"><metadata
     id="metadata20"><rdf:RDF><cc:Work
         rdf:about=""><dc:format>image/svg+xml</dc:format><dc:type
           rdf:resource="http://purl.org/dc/dcmitype/StillImage" /><dc:title /></cc:Work></rdf:RDF></metadata><defs
     id="defs18" /><sodipodi:namedview
     pagecolor="#ffffff"
     bordercolor="#666666"
     borderopacity="1"
     objecttolerance="10"
     gridtolerance="10"
     guidetolerance="10"
     inkscape:pageopacity="0"
     inkscape:pageshadow="2"
     inkscape:window-width="1600"
     inkscape:window-height="837"
     id="namedview16"
     showgrid="false"
     fit-margin-top="0"
     fit-margin-left="0"
     fit-margin-right="0"
     fit-margin-bottom="0"
     inkscape:zoom="1.888"
     inkscape:cx="-140.19167"
     inkscape:cy="37.500131"
     inkscape:window-x="0"
     inkscape:window-y="27"
     inkscape:window-maximized="1"
     inkscape:current-layer="svg2" /><g
     id="g4"
     transform="translate(-8.824,0)"
     style="fill:#b3b3b3"><path
       d="m 57.816,57.973 c 0,-5.662 -3.713,-13.065 -8.251,-16.451 L 17.076,17.288 c -4.539,-3.385 -8.252,-1.522 -8.252,4.14 l 0,36.197 c 0,5.662 3.713,13.065 8.252,16.451 L 49.565,98.31 c 4.539,3.386 8.251,1.522 8.251,-4.14 l 0,-36.197 z"
       id="path6"
       inkscape:connector-curvature="0"
       style="fill:#b3b3b3" /><polygon
       points="26.89,18.187 29.753,20.322 26.89,18.187 "
       id="polygon8"
       style="fill:#b3b3b3" /><path
       d="m 79.539,15.329 -15.933,0 L 52.863,0 30.972,15.329 l -7.913,0 7.664,5.716 21.025,-14.722 16.324,23.286 -25.869,0 8.474,6.321 20.618,0 c 1.504,0 2.724,1.22 2.724,2.724 0,1.504 -1.22,2.724 -2.724,2.724 l -14.601,0 c 3.754,4.689 6.271,11.067 6.271,16.595 l 0,17.41 16.574,0 c 2.832,0 5.148,-2.316 5.148,-5.147 l 0,-49.76 c 0.001,-2.831 -2.316,-5.147 -5.148,-5.147 z"
       id="path10"
       inkscape:connector-curvature="0"
       style="fill:#b3b3b3" /></g></svg>